<?xml version="1.0" encoding="utf-8"?>
<svg version="1.1" xmlns="http://www.w3.org/2000/svg" height="216" width="506">
    <defs>
        <linearGradient id="SvgjsLinearGradient1015">
            <stop id="SvgjsStop1016" stop-color="#8f5e25" offset="0"></stop>
            <stop id="SvgjsStop1017" stop-color="#fbf4a1" offset="0.5"></stop>
            <stop id="SvgjsStop1018" stop-color="#8f5e25" offset="1"></stop>
        </linearGradient>
    </defs>
    <g featurekey="rootContainer" transform="matrix(1,0,0,1,0,0)" fill="#000000">
        <path xmlns="http://www.w3.org/2000/svg" fill-rule="evenodd" d=" M0,0 H506 V216 H0,0 z M2,2 H504 V214 H2,2 z M6,6 H500 V210 H6 z M8,8 H498 V208 H6,8 z "></path>
    </g>
    <g transform="matrix(1.159293747504037,0,0,1.159293747504037,44.839263075891054,45.71173729211718)" fill="url(#SvgjsLinearGradient1015)">
        <path xmlns="http://www.w3.org/2000/svg" d="M7.902,42.545c0,4.55,6.858,8.113,15.613,8.113c8.756,0,15.615-3.564,15.615-8.113c0-0.414-0.336-0.75-0.75-0.75h-2.459  L25.216,12.437c0.34-0.149,0.659-0.337,0.918-0.599l20.505,11.838v3.253c0,0.414,0.336,0.75,0.75,0.75h0.546v49.04h-0.952  c-0.414,0-0.75,0.336-0.75,0.75v2.562H40.75c-3.422,0-6.216,2.745-6.293,6.149h-3.52c-0.414,0-0.75,0.336-0.75,0.75v4.307  c0,0.414,0.336,0.75,0.75,0.75h39.304c0.414,0,0.75-0.336,0.75-0.75v-4.308c0-0.414-0.336-0.75-0.75-0.75h-3.519  c-0.077-3.403-2.871-6.149-6.293-6.149h-5.484v-2.562c0-0.414-0.336-0.75-0.75-0.75h-0.952v-49.04h0.345l20.711,11.958  c-0.136,0.497-0.139,1.023-0.002,1.533c0.136,0.509,0.409,0.954,0.774,1.315L64.157,72.412h-2.538c-0.414,0-0.75,0.336-0.75,0.75  c0,4.55,6.857,8.113,15.612,8.113c8.757,0,15.616-3.564,15.616-8.113c0-0.414-0.336-0.75-0.75-0.75h-2.46L78.21,43.131  c0.616-0.243,1.136-0.67,1.472-1.253l-1.299-0.75c-0.158,0.273-0.408,0.459-0.692,0.581l-0.464-1.271  c-0.108-0.296-0.39-0.493-0.705-0.493s-0.597,0.197-0.705,0.493l-0.08,0.218c-0.059-0.333-0.019-0.672,0.152-0.968  c0.207-0.358,0.084-0.817-0.274-1.024L54.539,26.496v-5.093c0-0.414-0.336-0.75-0.75-0.75h-1.686l2.349-3.084  c0.159-0.208,0.198-0.483,0.103-0.727l-3.267-8.398c-0.224-0.576-1.173-0.576-1.398,0l-3.268,8.398  c-0.094,0.244-0.055,0.519,0.103,0.727l2.35,3.084h-1.686c-0.414,0-0.75,0.336-0.75,0.75v0.542L26.317,10.212  c-0.172-0.1-0.375-0.126-0.569-0.075c-0.192,0.052-0.355,0.178-0.455,0.35c-0.139,0.241-0.353,0.408-0.594,0.533l-0.438-1.199  c-0.108-0.296-0.39-0.493-0.705-0.493s-0.597,0.197-0.705,0.493l-0.155,0.426c-0.136-0.383-0.116-0.82,0.103-1.2L21.5,8.297  c-0.704,1.22-0.429,2.74,0.577,3.649L11.189,41.795H8.651C8.237,41.795,7.901,42.131,7.902,42.545z M53.004,16.994l-2.415,3.171  l-2.416-3.171l2.416-6.209L53.004,16.994z M87.29,72.412H77.272V44.941L87.29,72.412z M62.462,73.912h28.039  c-0.824,3.247-6.91,5.863-14.021,5.863C69.371,79.775,63.287,77.159,62.462,73.912z M65.753,72.412l10.019-27.471v27.471H65.753z   M35.203,87.68h30.77h3.517v2.808H31.686V87.68H35.203z M48.685,78.219c0.414,0,0.75-0.336,0.75-0.75v-50.54  c0-0.414-0.336-0.75-0.75-0.75h-0.546v-4.026h4.9v4.026h-0.545c-0.414,0-0.75,0.336-0.75,0.75v50.54c0,0.414,0.336,0.75,0.75,0.75  h0.952v2.562c0,0.414,0.336,0.75,0.75,0.75h6.233c2.593,0,4.701,2.074,4.78,4.649h-29.24c0.079-2.575,2.186-4.649,4.78-4.649h6.233  c0.414,0,0.75-0.336,0.75-0.75v-2.562H48.685z M22.807,14.324v27.471h-10.02L22.807,14.324z M34.323,41.794H24.307v-27.47  L34.323,41.794z M9.497,43.294h28.039c-0.825,3.247-6.91,5.863-14.021,5.863S10.32,46.542,9.497,43.294z"></path>
    </g>
    <g transform="matrix(3.142346527469664,0,0,3.142346527469664,177.82990981696952,13.297388603411093)" fill="#000000">
        <path xmlns="http://www.w3.org/2000/svg" d="M24.46 33.58 l2.06 2.18 c0.26 0.28 0.26 0.58 -0.02 0.84 c-2.54 2.46 -5.8 3.92 -9.64 3.92 c-7.98 0 -14.26 -6.38 -14.26 -14.4 c0 -8.06 6.28 -14.44 14.26 -14.44 c3.84 0 7.1 1.5 9.64 3.92 c0.28 0.26 0.28 0.56 0.02 0.84 l-2.06 2.18 c-0.26 0.28 -0.56 0.26 -0.84 0.02 c-1.86 -1.6 -4.02 -2.58 -6.78 -2.58 c-5.36 0 -9.64 4.3 -9.64 10.06 c0 5.7 4.28 10.02 9.64 10.02 c2.76 0 4.92 -0.98 6.78 -2.58 c0.28 -0.24 0.58 -0.26 0.84 0.02 z M58.099999999999994 24.880000000000003 c0.36 0 0.6 0.24 0.6 0.6 l0 1.92 c0 7.32 -4.78 13.12 -12.74 13.12 c-8.06 0 -14.34 -6.44 -14.34 -14.46 c0 -8 6.28 -14.38 14.26 -14.38 c3.84 0 7.1 1.5 9.64 3.92 c0.28 0.26 0.28 0.56 0.02 0.84 l-2.06 2.18 c-0.26 0.28 -0.56 0.26 -0.84 0.02 c-1.86 -1.6 -4.02 -2.58 -6.78 -2.58 c-5.36 0 -9.64 4.3 -9.64 10 s4.16 10.08 9.72 10.08 c5.02 0 8.24 -3.16 8.4 -7.38 l-8.08 0 c-0.36 0 -0.6 -0.24 -0.6 -0.6 l0 -2.68 c0 -0.36 0.24 -0.6 0.6 -0.6 l11.84 0 z M82.32 35.980000000000004 c0.36 0 0.6 0.24 0.6 0.6 l0 2.82 c0 0.36 -0.24 0.6 -0.6 0.6 l-17.02 0 c-0.36 0 -0.6 -0.24 -0.6 -0.6 l0 -26.8 c0 -0.36 0.24 -0.6 0.6 -0.6 l3.28 0 c0.36 0 0.6 0.24 0.6 0.6 l0 23.38 l13.14 0 z"></path>
    </g>
    <g transform="matrix(0.37911974504241996,0,0,0.37911974504241996,167.62088027755487,149.30066782024153)" fill="#000000">
        <path xmlns="http://www.w3.org/2000/svg" d="M7.3 20 c-1.18 0 -2.26 -0.28 -3.22 -0.84 c-0.96 -0.58 -1.72 -1.36 -2.26 -2.34 s-0.82 -2.08 -0.82 -3.3 c0 -1.18 0.28 -2.28 0.84 -3.26 c0.56 -0.96 1.34 -1.74 2.3 -2.3 c0.98 -0.56 2.08 -0.84 3.24 -0.84 c0.88 0 1.74 0.2 2.58 0.56 c0.84 0.38 1.56 0.88 2.16 1.52 c0.08 0.1 0.08 0.24 0 0.34 l-1.9 1.56 c-0.06 0.06 -0.12 0.1 -0.2 0.1 s-0.16 -0.04 -0.2 -0.1 c-1.02 -1.24 -2.66 -1.5 -4.04 -0.64 c-1.2 0.74 -1.64 2.1 -1.58 3.46 c0.06 1.38 1.06 2.56 2.38 2.96 c1.2 0.36 2.38 0.08 3.24 -0.84 c0.06 -0.04 0.12 -0.08 0.2 -0.06 c0.08 0 0.14 0.02 0.18 0.08 l1.94 1.36 c0.08 0.1 0.08 0.24 0 0.34 c-0.64 0.68 -1.4 1.24 -2.24 1.64 c-0.86 0.4 -1.74 0.6 -2.6 0.6 z M49.92 20 c-1.2 0 -2.3 -0.28 -3.26 -0.84 c-0.98 -0.56 -1.76 -1.36 -2.34 -2.32 c-0.56 -0.98 -0.84 -2.1 -0.84 -3.3 c0 -1.18 0.28 -2.28 0.84 -3.26 c0.58 -0.98 1.34 -1.76 2.32 -2.32 s2.08 -0.84 3.28 -0.84 c1.18 0 2.28 0.28 3.26 0.84 s1.76 1.34 2.32 2.32 c0.58 0.98 0.86 2.08 0.86 3.26 c0 1.2 -0.28 2.3 -0.86 3.28 c-0.56 0.98 -1.34 1.76 -2.32 2.34 c-0.98 0.56 -2.08 0.84 -3.26 0.84 z M49.96000000000001 17.12 c0.58 0 1.12 -0.16 1.6 -0.46 c0.5 -0.32 0.9 -0.74 1.18 -1.3 c0.3 -0.54 0.44 -1.16 0.44 -1.82 c0 -0.64 -0.14 -1.26 -0.44 -1.8 c-0.28 -0.54 -0.68 -0.96 -1.18 -1.28 c-0.48 -0.3 -1.02 -0.46 -1.6 -0.46 c-0.6 0 -1.14 0.16 -1.64 0.46 c-0.52 0.32 -0.92 0.74 -1.22 1.28 c-0.3 0.56 -0.44 1.16 -0.44 1.8 c0 0.66 0.14 1.28 0.44 1.82 c0.32 0.54 0.72 0.98 1.22 1.28 c0.5 0.32 1.04 0.48 1.64 0.48 z M88.10000000000001 20 c-0.14 0 -0.26 -0.12 -0.26 -0.26 l0 -11.98 c0 -0.14 0.12 -0.26 0.26 -0.26 l2.88 0 c0.1 0 0.2 0.06 0.24 0.14 l3 7.4 l2.98 -7.4 c0.04 -0.08 0.14 -0.14 0.24 -0.14 l2.88 0 c0.14 0 0.26 0.12 0.26 0.26 l0 11.98 c0 0.14 -0.12 0.26 -0.26 0.26 l-2.34 0 c-0.14 0 -0.26 -0.12 -0.26 -0.26 l0 -6.44 l-2.44 6.2 c-0.04 0.08 -0.14 0.14 -0.22 0.14 l-1.68 0 c-0.1 0 -0.2 -0.06 -0.24 -0.14 l-2.46 -6.2 l0 6.44 c0 0.14 -0.12 0.26 -0.26 0.26 l-2.32 0 z M132.32 20 c-0.14 0 -0.26 -0.12 -0.26 -0.26 l0 -11.98 c0 -0.14 0.12 -0.26 0.26 -0.26 l2.88 0 c0.1 0 0.2 0.06 0.24 0.14 l3 7.4 l2.98 -7.4 c0.04 -0.08 0.14 -0.14 0.24 -0.14 l2.88 0 c0.14 0 0.26 0.12 0.26 0.26 l0 11.98 c0 0.14 -0.12 0.26 -0.26 0.26 l-2.34 0 c-0.14 0 -0.26 -0.12 -0.26 -0.26 l0 -6.44 l-2.44 6.2 c-0.04 0.08 -0.14 0.14 -0.22 0.14 l-1.68 0 c-0.1 0 -0.2 -0.06 -0.24 -0.14 l-2.46 -6.2 l0 6.44 c0 0.14 -0.12 0.26 -0.26 0.26 l-2.32 0 z M182.72 20 c-1.2 0 -2.3 -0.28 -3.26 -0.84 c-0.98 -0.56 -1.76 -1.36 -2.34 -2.32 c-0.56 -0.98 -0.84 -2.1 -0.84 -3.3 c0 -1.18 0.28 -2.28 0.84 -3.26 c0.58 -0.98 1.34 -1.76 2.32 -2.32 s2.08 -0.84 3.28 -0.84 c1.18 0 2.28 0.28 3.26 0.84 s1.76 1.34 2.32 2.32 c0.58 0.98 0.86 2.08 0.86 3.26 c0 1.2 -0.28 2.3 -0.86 3.28 c-0.56 0.98 -1.34 1.76 -2.32 2.34 c-0.98 0.56 -2.08 0.84 -3.26 0.84 z M182.76 17.12 c0.58 0 1.12 -0.16 1.6 -0.46 c0.5 -0.32 0.9 -0.74 1.18 -1.3 c0.3 -0.54 0.44 -1.16 0.44 -1.82 c0 -0.64 -0.14 -1.26 -0.44 -1.8 c-0.28 -0.54 -0.68 -0.96 -1.18 -1.28 c-0.48 -0.3 -1.02 -0.46 -1.6 -0.46 c-0.6 0 -1.14 0.16 -1.64 0.46 c-0.52 0.32 -0.92 0.74 -1.22 1.28 c-0.3 0.56 -0.44 1.16 -0.44 1.8 c0 0.66 0.14 1.28 0.44 1.82 c0.32 0.54 0.72 0.98 1.22 1.28 c0.5 0.32 1.04 0.48 1.64 0.48 z M220.89999999999998 20 c-0.14 0 -0.26 -0.12 -0.26 -0.26 l0 -11.98 c0 -0.14 0.12 -0.26 0.26 -0.26 l2.36 0 c0.08 0 0.16 0.04 0.22 0.1 l4.6 7.1 l0 -6.94 c0 -0.14 0.12 -0.26 0.26 -0.26 l2.46 0 c0.14 0 0.26 0.12 0.26 0.26 l0 11.98 c0 0.14 -0.12 0.26 -0.26 0.26 l-2.36 0 c-0.08 0 -0.16 -0.04 -0.22 -0.1 l-4.58 -7.06 l0 6.9 c0 0.14 -0.12 0.26 -0.26 0.26 l-2.48 0 z M303.79999999999995 20 c-1.18 0 -2.28 -0.28 -3.24 -0.84 c-0.98 -0.58 -1.74 -1.36 -2.3 -2.32 c-0.56 -0.98 -0.84 -2.1 -0.84 -3.3 s0.28 -2.3 0.86 -3.26 c0.56 -0.98 1.36 -1.76 2.34 -2.32 c1 -0.56 2.12 -0.84 3.34 -0.84 c0.88 0 1.74 0.16 2.6 0.5 c0.84 0.32 1.58 0.78 2.18 1.36 c0.1 0.08 0.12 0.22 0.04 0.34 l-1.46 1.92 c-0.06 0.06 -0.12 0.1 -0.2 0.12 c-0.06 0 -0.14 -0.04 -0.2 -0.08 c-0.4 -0.4 -0.86 -0.72 -1.4 -0.94 c-0.52 -0.22 -1.04 -0.34 -1.56 -0.34 c-0.62 0 -1.2 0.16 -1.7 0.46 c-0.52 0.32 -0.92 0.74 -1.22 1.28 s-0.44 1.14 -0.44 1.8 s0.14 1.28 0.44 1.82 s0.72 0.98 1.22 1.3 c0.52 0.3 1.1 0.46 1.7 0.46 c0.32 0 0.66 -0.06 1.04 -0.16 c0.32 -0.1 0.66 -0.24 0.96 -0.4 l0 -0.92 l-1.38 0 c-0.08 0 -0.14 -0.02 -0.18 -0.08 c-0.06 -0.04 -0.08 -0.1 -0.08 -0.18 l0.02 -2.24 c0 -0.14 0.12 -0.26 0.26 -0.26 l3.88 0 c0.14 0 0.26 0.12 0.26 0.26 l0 5.02 c0 0.08 -0.04 0.16 -0.12 0.22 c-0.62 0.48 -1.38 0.88 -2.26 1.16 c-0.88 0.3 -1.74 0.46 -2.56 0.46 z M340.55999999999995 20 c-0.16 0 -0.26 -0.12 -0.26 -0.26 l0 -11.98 c0 -0.14 0.1 -0.26 0.26 -0.26 l4.88 0 c1.52 0 2.72 0.38 3.56 1.16 c1.24 1.12 1.66 3.24 1.06 4.8 c-0.22 0.56 -0.6 1.08 -1.08 1.46 c-0.28 0.22 -0.58 0.38 -0.88 0.54 c0.86 1.36 2.16 4.12 2.16 4.12 c0.02 0.04 0.06 0.1 0.06 0.16 c0 0.14 -0.12 0.26 -0.26 0.26 l-2.96 0 c-0.08 0 -0.18 -0.06 -0.22 -0.14 l-1.74 -3.82 c-0.62 0.04 -1.1 0.02 -1.74 0.02 l0 3.68 c0 0.14 -0.12 0.26 -0.26 0.26 l-2.58 0 z M343.4 13.280000000000001 c0 0 2.52 0.28 3.4 -0.3 c0.34 -0.22 0.54 -0.76 0.54 -1.16 c-0.02 -0.44 -0.24 -0.9 -0.6 -1.18 c-0.38 -0.32 -1.32 -0.42 -1.8 -0.42 l-1.54 0.04 l0 3.02 z M388.25999999999993 20 c-1.2 0 -2.3 -0.28 -3.26 -0.84 c-0.98 -0.56 -1.76 -1.36 -2.34 -2.32 c-0.56 -0.98 -0.84 -2.1 -0.84 -3.3 c0 -1.18 0.28 -2.28 0.84 -3.26 c0.58 -0.98 1.34 -1.76 2.32 -2.32 s2.08 -0.84 3.28 -0.84 c1.18 0 2.28 0.28 3.26 0.84 s1.76 1.34 2.32 2.32 c0.58 0.98 0.86 2.08 0.86 3.26 c0 1.2 -0.28 2.3 -0.86 3.28 c-0.56 0.98 -1.34 1.76 -2.32 2.34 c-0.98 0.56 -2.08 0.84 -3.26 0.84 z M388.29999999999995 17.12 c0.58 0 1.12 -0.16 1.6 -0.46 c0.5 -0.32 0.9 -0.74 1.18 -1.3 c0.3 -0.54 0.44 -1.16 0.44 -1.82 c0 -0.64 -0.14 -1.26 -0.44 -1.8 c-0.28 -0.54 -0.68 -0.96 -1.18 -1.28 c-0.48 -0.3 -1.02 -0.46 -1.6 -0.46 c-0.6 0 -1.14 0.16 -1.64 0.46 c-0.52 0.32 -0.92 0.74 -1.22 1.28 c-0.3 0.56 -0.44 1.16 -0.44 1.8 c0 0.66 0.14 1.28 0.44 1.82 c0.32 0.54 0.72 0.98 1.22 1.28 c0.5 0.32 1.04 0.48 1.64 0.48 z M431.4 20 c-1.08 0 -1.86 -0.22 -2.68 -0.66 c-0.8 -0.44 -1.44 -1.06 -1.88 -1.88 c-0.44 -0.8 -0.66 -1.76 -0.66 -2.86 l0 -7.04 c0 -0.14 0.12 -0.24 0.26 -0.24 l2.6 0 c0.14 0 0.24 0.1 0.24 0.24 l0 7.04 c0 0.8 0.22 1.42 0.64 1.86 s0.8 0.66 1.5 0.66 s1.06 -0.22 1.46 -0.64 c0.4 -0.44 0.6 -1.08 0.6 -1.88 l0 -7.04 c0 -0.14 0.12 -0.24 0.26 -0.24 l2.6 0 c0.14 0 0.26 0.1 0.26 0.24 l0 7.04 c0 1.1 -0.22 2.06 -0.66 2.86 c-0.42 0.82 -1.06 1.44 -1.86 1.88 s-1.6 0.66 -2.68 0.66 z M468.3399999999999 20 c-0.14 0 -0.26 -0.12 -0.26 -0.26 l0 -11.98 c0 -0.14 0.12 -0.26 0.26 -0.26 l2.36 0 c0.08 0 0.16 0.04 0.22 0.1 l4.6 7.1 l0 -6.94 c0 -0.14 0.12 -0.26 0.26 -0.26 l2.46 0 c0.14 0 0.26 0.12 0.26 0.26 l0 11.98 c0 0.14 -0.12 0.26 -0.26 0.26 l-2.36 0 c-0.08 0 -0.16 -0.04 -0.22 -0.1 l-4.58 -7.06 l0 6.9 c0 0.14 -0.12 0.26 -0.26 0.26 l-2.48 0 z M510.2399999999999 20 c-0.16 0 -0.26 -0.12 -0.26 -0.26 l0 -11.98 c0 -0.14 0.1 -0.26 0.26 -0.26 l4.54 0 c1.2 0 2.3 0.26 3.26 0.8 c0.96 0.52 1.7 1.26 2.24 2.22 c0.52 0.94 0.8 2.02 0.8 3.22 c0 1.22 -0.28 2.3 -0.82 3.24 c-0.54 0.96 -1.3 1.7 -2.28 2.22 c-0.96 0.54 -2.08 0.8 -3.3 0.8 l-4.44 0 z M513.0799999999999 17.2 l1.76 0 c0.58 0 1.12 -0.14 1.58 -0.42 c0.46 -0.3 0.84 -0.7 1.1 -1.22 s0.4 -1.12 0.4 -1.8 c0 -0.66 -0.14 -1.28 -0.42 -1.8 c-0.28 -0.54 -0.66 -0.94 -1.14 -1.24 c-0.48 -0.28 -1.04 -0.44 -1.64 -0.44 l-1.64 0 l0 6.92 z M587.6999999999999 20 c-0.14 0 -0.26 -0.12 -0.26 -0.26 l0 -11.98 c0 -0.14 0.12 -0.26 0.26 -0.26 l2.6 0 c0.14 0 0.26 0.12 0.26 0.26 l0 9.36 l4.5 0 c0.14 0 0.26 0.12 0.26 0.26 l0 2.36 c0 0.14 -0.12 0.26 -0.26 0.26 l-7.36 0 z M626.8 20 l0 -11.98 c0 -0.5 0.1 -0.6 0.26 -0.6 l8.76 0 c0.14 0 0.26 0.1 0.26 0.24 l0 2.26 c0 0.14 -0.12 0.26 -0.26 0.26 l-5.92 0 l0 2.08 l3.74 0 c0.14 0 0.26 0.12 0.26 0.26 l0 2.24 c0 0.14 -0.12 0.26 -0.26 0.26 l-3.74 0 l0 2.14 l5.9 0 c0.14 0 0.26 0.12 0.26 0.26 l0 2.24 c0 0.14 -0.12 0.26 -0.26 0.26 l-8.74 0 c-0.16 0 -0.26 -0.12 -0.26 0.08 z M673.9399999999999 20 c-1.18 0 -2.28 -0.28 -3.24 -0.84 c-0.98 -0.58 -1.74 -1.36 -2.3 -2.32 c-0.56 -0.98 -0.84 -2.1 -0.84 -3.3 s0.28 -2.3 0.86 -3.26 c0.56 -0.98 1.36 -1.76 2.34 -2.32 c1 -0.56 2.12 -0.84 3.34 -0.84 c0.88 0 1.74 0.16 2.6 0.5 c0.84 0.32 1.58 0.78 2.18 1.36 c0.1 0.08 0.12 0.22 0.04 0.34 l-1.46 1.92 c-0.06 0.06 -0.12 0.1 -0.2 0.12 c-0.06 0 -0.14 -0.04 -0.2 -0.08 c-0.4 -0.4 -0.86 -0.72 -1.4 -0.94 c-0.52 -0.22 -1.04 -0.34 -1.56 -0.34 c-0.62 0 -1.2 0.16 -1.7 0.46 c-0.52 0.32 -0.92 0.74 -1.22 1.28 s-0.44 1.14 -0.44 1.8 s0.14 1.28 0.44 1.82 s0.72 0.98 1.22 1.3 c0.52 0.3 1.1 0.46 1.7 0.46 c0.32 0 0.66 -0.06 1.04 -0.16 c0.32 -0.1 0.66 -0.24 0.96 -0.4 l0 -0.92 l-1.38 0 c-0.08 0 -0.14 -0.02 -0.18 -0.08 c-0.06 -0.04 -0.08 -0.1 -0.08 -0.18 l0.02 -2.24 c0 -0.14 0.12 -0.26 0.26 -0.26 l3.88 0 c0.14 0 0.26 0.12 0.26 0.26 l0 5.02 c0 0.08 -0.04 0.16 -0.12 0.22 c-0.62 0.48 -1.38 0.88 -2.26 1.16 c-0.88 0.3 -1.74 0.46 -2.56 0.46 z M710.6999999999999 20 c-0.08 0 -0.16 -0.04 -0.2 -0.12 c-0.06 -0.06 -0.06 -0.16 -0.04 -0.24 l4.66 -11.98 c0.04 -0.1 0.14 -0.16 0.24 -0.16 l2.68 0 c0.1 0 0.2 0.06 0.24 0.16 l4.58 11.98 c0.02 0.08 0.02 0.16 -0.04 0.24 c-0.04 0.08 -0.12 0.12 -0.2 0.12 l-2.78 0 c-0.1 0 -0.2 -0.06 -0.24 -0.16 l-0.74 -1.84 l-4.5 0.02 l-0.74 1.82 c-0.04 0.1 -0.14 0.16 -0.24 0.16 l-2.68 0 z M715.18 15.5 l2.88 0 l-1.44 -4.24 z M754.2199999999999 20 c-0.14 0 -0.26 -0.12 -0.26 -0.26 l0 -11.98 c0 -0.14 0.12 -0.26 0.26 -0.26 l2.6 0 c0.14 0 0.26 0.12 0.26 0.26 l0 9.36 l4.5 0 c0.14 0 0.26 0.12 0.26 0.26 l0 2.36 c0 0.14 -0.12 0.26 -0.26 0.26 l-7.36 0 z"></path>
    </g>
</svg>